**ABCDEFGHIJKLMNOPQRSTUVWXYZabcdefghijklmnopqrstuvwxyz**************************
**PARASOLID !"#$%&'()*+,-./:;<=>?@[\]^_`{|}~0123456789**************************
**PART1;
MC=AMD64;
MC_MODEL=Intel64 Family 6 Model 58 Stepping 9, GenuineIntel;
MC_ID=unknown;
OS=Windows_NT;
OS_RELEASE=unknown;
FRU=Parasolid Version 28.0, build 209,  1-25-2016;
APPL=SOLIDWORKS 2016-2016095;
SITE=;
USER=unknown;
FORMAT=text;
GUISE=transmit;
KEY=tube1;
FILE=tube1.x_t;
DATE=Sun Oct 02 13:34:23 2016;
**PART2;
SCH=SCH_2800209_28002;
USFLD_SIZE=0;
**PART3;
**END_OF_HEADER*****************************************************************
T51 : TRANSMIT FILE created by modeller version 280020923 SCH_2800209_28002_1300
6200 0 12 30 CCCCCCCCCCCCCDI5 owner1040 0 CCCCCCCCCA13 boundary_mesh1006 0 A16 i
ndex_map_offset0 0 1 dA9 index_map82 0 A17 node_id_index_map82 0 A20 schema_embe
dding_map82 0 A5 child12 0 A14 lowest_node_id0 0 1 dZ1 301 2 3 0 0 0 0 1e3 1e-8
 0 4 0 1 0 1 1 5 6 7 0 8 9 0 0 0 0 0 0 0 0 81 255 2 2 256 10 1 0 0 0 0 11 0 70 1
1 CI9 list_type0 0 1 uI10 notransmit0 0 1 lCCCDCCDI12 finger_index0 0 1 dI12 fin
ger_block1012 0 CZ3 0 4 T1 0 0 3 20 1 12 12 13 255 5 29 0 1 0 13 0 0 14 0 51 255
 6 28 0 15 16 0 0 -0 .12 0 0 -1 0 .025 0 0 -1 31 255 7 23 0 17 18 0 0 +0 0 0 0 1
 0 0 0 1 .025 19 8 CCCCCCCA5 owner12 0 Z8 7 0 1 14 0 19 V0 16 255 9 4 0 ?20 0 17
 18 0 0 1 17 255 20 0 21 20 20 0 22 9 0 0 +16 17 18 0 ?23 9 24 7 0 0 1 31 18 5 0
 9 25 7 0 +0 .12 0 0 1 0 0 0 1 .025 31 25 145 0 24 26 18 0 +0 .11 0 0 1 0 0 0 1
 .02 16 24 108 0 ?27 17 28 25 0 0 1 31 26 146 0 29 30 25 0 +0 .12 0 0 1 0 0 0 1
 .0175 16 29 117 0 ?31 28 32 26 0 0 1 31 30 147 0 28 33 26 0 +0 .11 0 0 1 0 0 0
 1 .0175 16 28 111 0 ?34 24 29 30 0 0 1 31 33 211 0 32 35 30 0 +0 .01 0 0 -1 0 0
 0 -1 .02 16 32 174 0 ?36 29 37 33 0 0 1 31 35 212 0 38 39 33 0 +0 0 0 0 -1 0 0
 0 -1 .01 16 38 183 0 ?40 37 0 35 0 0 1 31 39 213 0 37 0 35 0 +0 .01 0 0 -1 0 0
 0 -1 .01 16 37 177 0 ?41 32 38 39 0 0 1 17 41 0 42 41 41 0 43 37 0 0 +15 255 42
 193 0 41 44 45 17 43 0 46 43 43 0 41 37 0 0 -15 46 202 0 43 47 48 14 255 47 199
 49 ?0 44 46 5 50 -0 0 0 44 19 15 48 203 0 40 47 0 17 40 0 48 40 40 0 51 38 0 0
 +17 51 0 52 51 51 0 40 38 0 0 -15 52 197 0 51 53 0 14 53 40 54 ?15 55 56 5 16 -
0 0 15 55 19 81 1 54 295 57 53 58 0 49 59 60 14 15 25 59 ?61 53 62 5 6 -0 0 61 5
3 19 14 55 46 63 ?53 13 21 5 64 +0 0 53 13 19 15 56 17 0 65 53 52 50 255 16 22 0
 53 64 6 0 +0 0 0 0 1 0 0 0 1 13 19 8 0 0 0 0 0 0 8 13 14 13 170 66 ?55 0 67 5 6
8 +0 0 55 0 19 81 1 66 298 57 13 69 0 63 70 71 15 67 101 0 27 13 72 51 68 68 0 1
3 73 64 0 -0 .12 0 0 -1 0 .02 0 0 -1 50 73 142 0 61 74 68 0 +0 .11 0 0 1 0 0 0 1
 50 64 2 0 55 68 16 0 +0 .12 0 0 1 0 0 0 1 14 61 125 70 ?75 15 76 5 73 -0 0 75 1
5 19 51 74 143 0 75 77 73 0 +0 .11 0 0 1 0 .0175 0 0 1 14 75 133 78 ?44 61 79 5
 74 -0 0 44 61 19 50 77 208 0 44 50 74 0 +0 .01 0 0 -1 0 0 0 -1 14 44 191 80 ?47
 75 42 5 77 -0 0 47 75 19 51 50 209 0 47 0 77 0 +0 .01 0 0 -1 0 .01 0 0 -1 81 1
 80 301 57 44 81 0 78 0 82 80 255 1 57 83 84 9000 1 1 1 1 1 1 1 1 0 FFFFTFTFFFFF
FF1 81 1 81 272 85 44 0 80 86 87 88 81 1 78 300 57 75 86 0 70 80 89 82 255 1 82
 -487456656 81 1 86 271 85 75 0 78 90 81 91 81 1 70 299 57 61 90 0 66 78 92 82 1
 89 629866604 81 1 90 270 85 61 0 70 93 86 94 82 1 92 623902828 80 1 85 0 95 800
1 0 0 0 0 3 5 0 0 0 FFFFTFTFFFFFFF2 81 1 93 269 85 15 0 59 58 90 96 83 255 3 94
 .792156862745098 .819607843137255 .933333333333333 81 1 59 296 57 15 93 0 54 63
 97 81 1 58 268 85 53 0 54 98 93 99 83 3 96 .792156862745098 .819607843137255 .9
33333333333333 81 1 98 267 85 55 0 63 69 58 100 83 3 99 .792156862745098 .819607
843137255 .933333333333333 81 1 63 297 57 55 98 0 59 66 101 81 1 69 266 85 13 0
 66 0 98 102 83 3 100 .792156862745098 .819607843137255 .933333333333333 83 3 10
2 .792156862745098 .819607843137255 .933333333333333 82 1 101 145621100 82 1 97
 139264104 79 255 15 95 SDL/TYSA_COLOUR83 3 91 .792156862745098 .819607843137255
 .933333333333333 81 1 87 273 85 47 0 49 81 0 103 83 3 88 .792156862745098 .8196
07843137255 .933333333333333 81 1 49 294 57 47 87 0 0 54 104 83 3 103 .792156862
745098 .819607843137255 .933333333333333 82 1 104 -489488272 79 14 84 SWEntUncha
nged15 79 136 0 105 75 106 17 105 0 79 105 105 0 34 28 0 0 -15 106 137 0 31 75 0
 17 31 0 106 31 31 0 107 29 0 0 +17 107 0 108 107 107 0 31 29 0 0 -15 108 131 0
 107 55 0 17 34 0 76 34 34 0 105 28 0 0 +15 76 127 0 34 61 109 15 109 128 0 110
 61 0 17 110 0 109 110 110 0 27 24 0 0 -17 27 0 67 27 27 0 110 24 0 0 +15 72 167
 0 36 13 0 17 36 0 72 36 36 0 111 32 0 0 +17 111 0 45 111 111 0 36 32 0 0 -15 45
 194 0 111 44 0 82 1 71 -481755024 17 65 0 56 65 65 0 23 17 0 0 -17 23 0 112 23
 23 0 65 17 0 0 +15 112 26 0 23 15 0 15 21 3 0 20 55 108 15 62 24 0 22 15 112 17
 22 0 62 22 22 0 20 9 0 0 -82 1 60 145096816 19 14 30 0 1 0 8 5 S0 74 4 CI16 ind
ex_map_offset0 0 1 dCCZ20 12 3 0 0 80 2 87 0 0 0 0 0 0 0 0 0 0 0 0 0 0 0 0 0 80
 2 10 113 114 8004 0 0 0 0 3 5 0 0 0 FFTFFFFFFFFFFF2 3 83 1 11 1 79 16 114 SDL/T
YSA_DENSITY1 0 
