**ABCDEFGHIJKLMNOPQRSTUVWXYZabcdefghijklmnopqrstuvwxyz**************************
**PARASOLID !"#$%&'()*+,-./:;<=>?@[\]^_`{|}~0123456789**************************
**PART1;
MC=AMD64;
MC_MODEL=Intel64 Family 6 Model 58 Stepping 9, GenuineIntel;
MC_ID=unknown;
OS=Windows_NT;
OS_RELEASE=unknown;
FRU=Parasolid Version 28.0, build 209,  1-25-2016;
APPL=SOLIDWORKS 2016-2016095;
SITE=;
USER=unknown;
FORMAT=text;
GUISE=transmit;
KEY=tube2;
FILE=tube2.x_t;
DATE=Sun Oct 02 13:45:15 2016;
**PART2;
SCH=SCH_2800209_28002;
USFLD_SIZE=0;
**PART3;
**END_OF_HEADER*****************************************************************
T51 : TRANSMIT FILE created by modeller version 280020923 SCH_2800209_28002_1300
6200 0 12 30 CCCCCCCCCCCCCDI5 owner1040 0 CCCCCCCCCA13 boundary_mesh1006 0 A16 i
ndex_map_offset0 0 1 dA9 index_map82 0 A17 node_id_index_map82 0 A20 schema_embe
dding_map82 0 A5 child12 0 A14 lowest_node_id0 0 1 dZ1 286 2 3 0 0 0 0 1e3 1e-8
 0 4 0 1 0 1 1 5 6 7 0 8 9 0 0 0 0 0 0 0 0 81 255 2 2 250 10 1 0 0 0 0 11 0 70 1
1 CI9 list_type0 0 1 uI10 notransmit0 0 1 lCCCDCCDI12 finger_index0 0 1 dI12 fin
ger_block1012 0 CZ3 0 4 T1 0 0 3 20 1 12 12 13 255 5 29 0 1 0 13 0 0 14 0 51 255
 6 28 0 15 16 0 0 -.5 0 0 -1 0 0 .02 0 0 1 31 255 7 23 0 17 18 0 0 +0 0 0 1 0 0
 0 0 -1 .02 19 8 CCCCCCCA5 owner12 0 Z8 7 0 1 14 0 19 V0 16 255 9 4 0 ?20 0 17 1
8 0 0 1 17 255 20 0 21 20 20 0 22 9 0 0 +16 17 18 0 ?23 9 24 7 0 0 1 31 18 5 0 9
 25 7 0 +.5 0 0 1 0 0 0 0 -1 .02 31 25 137 0 24 26 18 0 +.01 0 0 -1 0 0 0 0 1 .0
18 16 24 100 0 ?27 17 28 25 0 0 1 31 26 138 0 29 30 25 0 +0 0 0 -1 0 0 0 0 1 .01
 16 29 109 0 ?31 28 32 26 0 0 1 31 30 139 0 28 33 26 0 +.01 0 0 -1 0 0 0 0 1 .01
 16 28 103 0 ?34 24 29 30 0 0 1 31 33 201 0 32 35 30 0 +.49 0 -3469446951953615e
-33 1 0 0 0 0 -1 .018 16 32 164 0 ?36 29 37 33 0 0 1 31 35 202 0 38 39 33 0 +.5
 0 -3469446951953615e-33 1 0 0 0 0 -1 .015 16 38 173 0 ?40 37 0 35 0 0 1 31 39 2
03 0 37 0 35 0 +.49 0 -3469446951953615e-33 1 0 0 0 0 -1 .015 16 37 167 0 ?41 32
 38 39 0 0 1 17 41 0 42 41 41 0 43 37 0 0 +15 255 42 183 0 41 44 45 17 43 0 46 4
3 43 0 41 37 0 0 -15 46 192 0 43 47 48 14 255 47 189 49 ?0 44 46 5 50 -0 0 0 44
 19 15 48 193 0 40 47 0 17 40 0 48 40 40 0 51 38 0 0 +17 51 0 52 51 51 0 40 38 0
 0 -15 52 187 0 51 53 0 14 53 46 54 ?55 13 21 5 56 +0 0 55 13 19 81 1 54 280 57
 53 58 0 49 59 60 14 55 40 59 ?15 53 61 5 16 -0 0 15 53 19 14 13 161 62 ?53 0 63
 5 64 +0 0 53 0 19 15 21 3 0 20 53 52 50 255 56 2 0 53 64 16 0 +.5 0 0 1 0 0 0 0
 -1 13 19 8 0 0 0 0 0 0 8 13 51 64 68 0 13 65 56 0 -.5 0 0 -1 0 0 .018 0 0 1 50
 16 22 0 55 56 6 0 +0 0 0 1 0 0 0 0 -1 50 65 134 0 66 67 64 0 +.01 0 0 -1 0 0 0
 0 1 14 66 117 68 ?69 15 70 5 65 -0 0 69 15 19 51 67 135 0 69 71 65 0 +.01 0 0 -
1 0 0 .01 0 0 1 14 69 125 72 ?44 66 73 5 67 -0 0 44 66 19 50 71 198 0 44 50 67 0
 +.49 0 -3469446951953615e-33 1 0 0 0 0 -1 14 44 181 74 ?47 69 42 5 71 -0 0 47 6
9 19 51 50 199 0 47 0 71 0 +.49 0 -3469446951953615e-33 1 0 0 .015 0 0 -1 81 1 7
4 285 57 44 75 0 72 76 77 80 255 1 57 78 79 9000 1 1 1 1 1 1 1 1 0 FFFFTFTFFFFFF
F1 81 1 75 257 80 44 0 74 81 82 83 81 1 72 284 57 69 81 0 68 74 84 81 1 76 286 5
7 15 85 0 74 0 86 82 255 1 77 510722184 14 15 25 76 ?66 55 87 5 6 -0 0 66 55 19
 81 1 85 254 80 15 0 76 88 89 90 82 1 86 1401094260 80 1 80 0 91 8001 0 0 0 0 3
 5 0 0 0 FFFFTFTFFFFFFF2 81 1 88 253 80 55 0 59 58 85 92 81 1 89 255 80 66 0 68
 85 81 93 83 255 3 90 .792156862745098 .819607843137255 .933333333333333 81 1 68
 283 57 66 89 0 62 72 94 81 1 81 256 80 69 0 72 89 75 95 83 3 93 .79215686274509
8 .819607843137255 .933333333333333 83 3 95 .792156862745098 .819607843137255 .9
33333333333333 81 1 62 282 57 13 96 0 59 68 97 82 1 94 491126918 81 1 96 251 80
 13 0 62 0 58 98 81 1 59 281 57 55 88 0 54 62 99 82 1 97 516358280 82 1 99 14027
98214 81 1 58 252 80 53 0 54 96 88 100 83 3 98 .792156862745098 .819607843137255
 .933333333333333 83 3 100 .792156862745098 .819607843137255 .933333333333333 83
 3 92 .792156862745098 .819607843137255 .933333333333333 79 255 15 91 SDL/TYSA_C
OLOUR15 87 24 0 22 15 101 17 22 0 87 22 22 0 20 9 0 0 -15 101 26 0 23 15 0 17 23
 0 101 23 23 0 102 17 0 0 +17 102 0 61 102 102 0 23 17 0 0 -15 61 17 0 102 55 10
3 15 103 123 0 104 55 0 17 104 0 103 104 104 0 31 29 0 0 -17 31 0 105 31 31 0 10
4 29 0 0 +15 105 129 0 31 69 0 82 1 84 489095302 81 1 82 258 80 47 0 49 75 0 106
 83 3 83 .792156862745098 .819607843137255 .933333333333333 81 1 49 279 57 47 82
 0 0 54 107 83 3 106 .792156862745098 .819607843137255 .933333333333333 82 1 107
 508690568 79 14 79 SWEntUnchanged15 73 128 0 108 69 105 17 108 0 73 108 108 0 3
4 28 0 0 -17 34 0 70 34 34 0 108 28 0 0 +15 70 119 0 34 66 109 15 109 120 0 110
 66 0 17 110 0 109 110 110 0 27 24 0 0 -17 27 0 63 27 27 0 110 24 0 0 +15 63 94
 0 27 13 111 15 111 158 0 36 13 0 17 36 0 111 36 36 0 112 32 0 0 +17 112 0 45 11
2 112 0 36 32 0 0 -15 45 184 0 112 44 0 82 1 60 1403322504 19 14 30 0 1 0 8 5 S0
 74 4 CI16 index_map_offset0 0 1 dCCZ20 12 3 0 0 76 2 82 0 0 0 0 0 0 0 0 0 0 0 0
 0 0 0 0 0 80 2 10 113 114 8004 0 0 0 0 3 5 0 0 0 FFTFFFFFFFFFFF2 3 83 1 11 1 79
 16 114 SDL/TYSA_DENSITY1 0 
